<?xml version="1.0" encoding="utf-8"?>
<!-- Generator: Adobe Illustrator 26.3.1, SVG Export Plug-In . SVG Version: 6.00 Build 0)  -->
<svg version="1.1" id="Layer_1" xmlns="http://www.w3.org/2000/svg" xmlns:xlink="http://www.w3.org/1999/xlink" x="0px" y="0px"
	 viewBox="0 0 400 147" style="enable-background:new 0 0 400 147;" xml:space="preserve">
<style type="text/css">
	.st0{fill:#010101;}
	.st1{fill:#258ACA;}
</style>
<g>
	<g>
		<g>
			<path class="st0" d="M123.8,97.2c-4.5,0-8.9-0.6-13.1-1.7s-7.6-2.6-10.2-4.4l5.1-11.5c2.5,1.6,5.3,2.9,8.6,3.9
				c3.2,1,6.5,1.5,9.7,1.5c2.2,0,3.9-0.2,5.2-0.6c1.3-0.4,2.3-0.9,2.9-1.6c0.6-0.7,0.9-1.4,0.9-2.3c0-1.3-0.6-2.3-1.7-3
				c-1.2-0.7-2.7-1.3-4.5-1.8c-1.8-0.5-3.9-0.9-6.1-1.4c-2.2-0.5-4.5-1.1-6.7-1.8c-2.2-0.7-4.3-1.7-6.1-2.9
				c-1.8-1.2-3.3-2.7-4.5-4.7c-1.2-1.9-1.7-4.4-1.7-7.3c0-3.3,0.9-6.3,2.7-9c1.8-2.7,4.5-4.8,8.2-6.5c3.6-1.6,8.2-2.4,13.6-2.4
				c3.6,0,7.2,0.4,10.7,1.2c3.5,0.8,6.6,2,9.4,3.6l-4.8,11.6c-2.6-1.4-5.2-2.5-7.8-3.2c-2.6-0.7-5.1-1.1-7.5-1.1
				c-2.2,0-3.9,0.2-5.2,0.7c-1.3,0.4-2.3,1-2.8,1.8c-0.6,0.7-0.9,1.6-0.9,2.5c0,1.2,0.6,2.2,1.7,2.9c1.1,0.7,2.6,1.3,4.5,1.7
				c1.9,0.4,3.9,0.9,6.2,1.4c2.2,0.5,4.5,1.1,6.7,1.8c2.2,0.7,4.3,1.7,6.1,2.8c1.8,1.2,3.3,2.7,4.5,4.7c1.1,1.9,1.7,4.3,1.7,7.2
				c0,3.2-0.9,6.2-2.7,8.9c-1.8,2.7-4.5,4.9-8.1,6.5C133.8,96.4,129.3,97.2,123.8,97.2z"/>
			<path class="st0" d="M167.3,96.1V40.9h15.6v55.3H167.3z"/>
			<path class="st0" d="M205.9,96.1V40.9h15.6v42.9h26.4v12.4H205.9z"/>
			<path class="st0" d="M265.9,96.1V40.9h28.3c7.3,0,12.7,1.3,16.3,4c3.6,2.7,5.4,6.1,5.4,10.5c0,2.8-0.7,5.3-2.2,7.5
				s-3.6,3.8-6.3,5.1c-2.7,1.2-5.9,1.9-9.7,1.9l1.6-3.8c3.9,0,7.3,0.6,10.2,1.8c2.9,1.2,5.1,2.9,6.7,5.1c1.6,2.2,2.4,5,2.4,8.2
				c0,4.8-1.9,8.5-5.8,11.2c-3.9,2.7-9.5,4-16.9,4H265.9z M281.3,84.8h13.1c2.7,0,4.7-0.5,6.1-1.4c1.4-0.9,2.1-2.3,2.1-4.2
				c0-1.9-0.7-3.3-2.1-4.2c-1.4-0.9-3.4-1.4-6.1-1.4h-14.2V62.8h11.8c2.6,0,4.6-0.4,5.9-1.3c1.3-0.9,2-2.2,2-4c0-1.8-0.7-3.1-2-4
				c-1.3-0.9-3.3-1.3-5.9-1.3h-10.7V84.8z"/>
			<path class="st0" d="M366.3,97.2c-4.4,0-8.5-0.7-12.2-2.1s-7-3.4-9.7-6c-2.8-2.6-4.9-5.6-6.4-9.1c-1.5-3.5-2.3-7.3-2.3-11.4
				c0-4.2,0.8-8,2.3-11.4s3.7-6.5,6.4-9.1s6-4.6,9.7-6s7.8-2.1,12.2-2.1c4.5,0,8.6,0.7,12.3,2.1s6.9,3.4,9.7,6
				c2.7,2.6,4.9,5.6,6.4,9.1c1.6,3.5,2.3,7.3,2.3,11.4c0,4.2-0.8,8-2.3,11.5c-1.6,3.5-3.7,6.5-6.4,9.1c-2.7,2.6-6,4.6-9.7,6
				S370.7,97.2,366.3,97.2z M366.3,84.3c2.1,0,4.1-0.4,5.9-1.1c1.8-0.7,3.4-1.8,4.7-3.2c1.3-1.4,2.4-3.1,3.2-5
				c0.8-1.9,1.1-4.1,1.1-6.5c0-2.4-0.4-4.6-1.1-6.5c-0.8-1.9-1.8-3.6-3.2-5c-1.3-1.4-2.9-2.5-4.7-3.2c-1.8-0.7-3.8-1.1-5.9-1.1
				c-2.1,0-4.1,0.4-5.9,1.1c-1.8,0.7-3.4,1.8-4.7,3.2c-1.3,1.4-2.4,3.1-3.2,5c-0.8,1.9-1.1,4.1-1.1,6.5c0,2.4,0.4,4.5,1.1,6.5
				c0.8,1.9,1.8,3.6,3.2,5c1.3,1.4,2.9,2.5,4.7,3.2C362.2,83.9,364.2,84.3,366.3,84.3z"/>
		</g>
	</g>
	<g>
		<path class="st1" d="M176.4,114.2h-6.2l-1.3,3h-1.2l5.1-11.2h1.2l5.1,11.2h-1.2L176.4,114.2z M175.9,113.2l-2.7-6l-2.7,6H175.9z"
			/>
		<path class="st1" d="M192,112.3v4.9h-1.1v-4.8c0-1.8-0.9-2.7-2.5-2.7c-1.8,0-2.9,1.1-2.9,3v4.4h-1.1v-8.4h1.1v1.5
			c0.6-1,1.7-1.6,3.2-1.6C190.6,108.7,192,109.9,192,112.3z"/>
		<path class="st1" d="M207,106h1.2v11.2H207V106z"/>
		<path class="st1" d="M223.1,112.3v4.9H222v-4.8c0-1.8-0.9-2.7-2.5-2.7c-1.8,0-2.9,1.1-2.9,3v4.4h-1.1v-8.4h1.1v1.5
			c0.6-1,1.7-1.6,3.2-1.6C221.7,108.7,223.1,109.9,223.1,112.3z"/>
		<path class="st1" d="M236.8,108.8l-3.7,8.4h-1.2l-3.7-8.4h1.2l3.1,7.1l3.2-7.1H236.8z"/>
		<path class="st1" d="M249.2,113.3h-7c0.1,1.8,1.5,2.9,3.3,2.9c1,0,1.9-0.4,2.6-1.1l0.6,0.7c-0.7,0.9-1.9,1.4-3.2,1.4
			c-2.6,0-4.4-1.8-4.4-4.3s1.7-4.3,4.1-4.3c2.4,0,4.1,1.7,4.1,4.3C249.3,113.1,249.2,113.2,249.2,113.3z M242.2,112.5h5.9
			c-0.1-1.6-1.3-2.8-3-2.8C243.6,109.7,242.4,110.9,242.2,112.5z"/>
		<path class="st1" d="M263.1,112.3v4.9h-1.1v-4.8c0-1.8-0.9-2.7-2.5-2.7c-1.8,0-2.9,1.1-2.9,3v4.4h-1.1v-8.4h1.1v1.5
			c0.6-1,1.7-1.6,3.2-1.6C261.7,108.7,263.1,109.9,263.1,112.3z"/>
		<path class="st1" d="M277.6,105.4v11.8h-1.1v-1.7c-0.7,1.1-1.8,1.7-3.2,1.7c-2.4,0-4.2-1.7-4.2-4.3s1.8-4.3,4.2-4.3
			c1.3,0,2.5,0.6,3.2,1.7v-5H277.6z M276.5,113c0-2-1.3-3.3-3.1-3.3c-1.8,0-3.1,1.3-3.1,3.3c0,2,1.3,3.3,3.1,3.3
			C275.1,116.3,276.5,114.9,276.5,113z"/>
		<path class="st1" d="M284.2,106.1c0-0.4,0.4-0.8,0.8-0.8c0.5,0,0.8,0.4,0.8,0.8c0,0.5-0.4,0.8-0.8,0.8
			C284.6,107,284.2,106.6,284.2,106.1z M284.5,108.8h1.1v8.4h-1.1V108.8z"/>
		<path class="st1" d="M291.4,116.2l0.5-0.9c0.7,0.5,1.8,0.9,3,0.9c1.6,0,2.2-0.5,2.2-1.4c0-2.2-5.4-0.5-5.4-3.8
			c0-1.4,1.2-2.4,3.3-2.4c1.1,0,2.3,0.3,3,0.8l-0.5,0.9c-0.7-0.5-1.6-0.7-2.5-0.7c-1.5,0-2.2,0.6-2.2,1.4c0,2.3,5.4,0.6,5.4,3.8
			c0,1.5-1.3,2.4-3.5,2.4C293.4,117.3,292.1,116.8,291.4,116.2z"/>
		<path class="st1" d="M321,109.8c0,2.4-1.7,3.8-4.6,3.8h-3v3.5h-1.2V106h4.2C319.3,106,321,107.5,321,109.8z M319.8,109.8
			c0-1.8-1.2-2.8-3.4-2.8h-3v5.6h3C318.7,112.6,319.8,111.6,319.8,109.8z"/>
		<path class="st1" d="M331.1,108.7v1.1c-0.1,0-0.2,0-0.3,0c-1.8,0-2.8,1.1-2.8,3.1v4.3h-1.1v-8.4h1.1v1.6
			C328.5,109.3,329.6,108.7,331.1,108.7z"/>
		<path class="st1" d="M336,113c0-2.5,1.8-4.3,4.3-4.3s4.3,1.8,4.3,4.3s-1.8,4.3-4.3,4.3S336,115.5,336,113z M343.4,113
			c0-2-1.3-3.3-3.1-3.3s-3.1,1.3-3.1,3.3c0,2,1.3,3.3,3.1,3.3S343.4,114.9,343.4,113z"/>
		<path class="st1" d="M358.2,105.4v11.8h-1.1v-1.7c-0.7,1.1-1.8,1.7-3.2,1.7c-2.4,0-4.2-1.7-4.2-4.3s1.8-4.3,4.2-4.3
			c1.3,0,2.5,0.6,3.2,1.7v-5H358.2z M357.1,113c0-2-1.3-3.3-3.1-3.3c-1.8,0-3.1,1.3-3.1,3.3c0,2,1.3,3.3,3.1,3.3
			C355.8,116.3,357.1,114.9,357.1,113z"/>
		<path class="st1" d="M372.7,108.8v8.4h-1.1v-1.5c-0.6,1-1.7,1.6-3,1.6c-2.1,0-3.5-1.2-3.5-3.6v-4.9h1.1v4.8c0,1.8,0.9,2.7,2.5,2.7
			c1.8,0,2.9-1.1,2.9-3v-4.4H372.7z"/>
		<path class="st1" d="M378.8,113c0-2.5,1.8-4.3,4.3-4.3c1.4,0,2.6,0.6,3.3,1.7l-0.8,0.6c-0.6-0.8-1.5-1.2-2.4-1.2
			c-1.8,0-3.2,1.3-3.2,3.3c0,2,1.3,3.3,3.2,3.3c1,0,1.9-0.4,2.4-1.2l0.8,0.6c-0.7,1.1-1.9,1.7-3.3,1.7
			C380.6,117.3,378.8,115.5,378.8,113z"/>
		<path class="st1" d="M396.9,116.7c-0.4,0.4-1.1,0.6-1.8,0.6c-1.6,0-2.5-0.9-2.5-2.4v-5.1h-1.5v-1h1.5V107h1.1v1.8h2.6v1h-2.6v5
			c0,1,0.5,1.5,1.5,1.5c0.5,0,0.9-0.1,1.2-0.4L396.9,116.7z"/>
	</g>
	<g>
		<path class="st0" d="M32.6,72.1c-2.1,0-3.7-1.6-3.7-3.9s1.6-3.9,3.7-3.9c2.1,0,3.7,1.5,3.7,3.9S34.7,72.1,32.6,72.1z"/>
		<path class="st1" d="M61.5,30.9v23.6h-9.9V40.8h-8.9c-14.2,0-26.1,9.7-28.5,22.3H27c-1.3,1.3-2,3-2,4.9s0.7,3.7,2,4.9H3.8v-4.9
			c0-1.7,0.1-3.3,0.3-4.9C6.7,45,23,30.9,42.7,30.9H61.5z"/>
		<path class="st1" d="M38.3,63.2h23.2v4.9c0,20.5-17.5,37.2-38.9,37.2H3.8v-24h9.9v14.1h8.9c14.2,0,26.1-9.7,28.5-22.3H38.3
			c1.3-1.3,2-3,2-4.9S39.5,64.4,38.3,63.2z"/>
		<path class="st0" d="M25,68.1c0,2,0.7,3.7,2,4.9H3.8v-4.9c0-1.7,0.1-3.3,0.3-4.9H27C25.7,64.4,25,66.2,25,68.1z"/>
		<rect x="3.8" y="81.3" class="st0" width="9.9" height="24"/>
	</g>
</g>
</svg>
